{
  "asset": {
    "version": "2.0",
    "generator": "babylon.js glTF exporter for 3ds max 2019 v1.4.2"
  },
  "scene": 0,
  "scenes": [
    {
      "nodes": [
        0,
        1
      ],
      "extensions": {}
    }
  ],
  "nodes": [
    {
      "mesh": 0,
      "translation": [
        -0.0466976054,
        0.0,
        -0.03654604
      ],
      "rotation": [
        0.0,
        0.0,
        0.0,
        1.0
      ],
      "scale": [
        1.0,
        1.0,
        1.0
      ],
      "name": "Teapot001"
    },
    {
      "translation": [
        0.0,
        0.0,
        0.0
      ],
      "rotation": [
        0.0,
        0.0,
        0.0,
        1.0
      ],
      "scale": [
        1.0,
        1.0,
        1.0
      ],
      "name": "Default light"
    }
  ],
  "meshes": [
    {
      "primitives": [
        {
          "attributes": {
            "POSITION": 1,
            "NORMAL": 2,
            "TEXCOORD_0": 3
          },
          "indices": 0,
          "mode": 4,
          "material": 0
        }
      ],
      "name": "Teapot001"
    }
  ],
  "accessors": [
    {
      "bufferView": 0,
      "componentType": 5123,
      "count": 12096,
      "type": "SCALAR",
      "name": "accessorIndices"
    },
    {
      "bufferView": 1,
      "componentType": 5126,
      "count": 12096,
      "max": [
        0.340307236,
        0.3122399,
        0.198247537
      ],
      "min": [
        -0.297371328,
        0.0,
        -0.198247537
      ],
      "type": "VEC3",
      "name": "accessorPositions"
    },
    {
      "bufferView": 1,
      "byteOffset": 145152,
      "componentType": 5126,
      "count": 12096,
      "type": "VEC3",
      "name": "accessorNormals"
    },
    {
      "bufferView": 2,
      "componentType": 5126,
      "count": 12096,
      "type": "VEC2",
      "name": "accessorUVs"
    }
  ],
  "bufferViews": [
    {
      "buffer": 0,
      "byteLength": 24192,
      "name": "bufferViewScalar"
    },
    {
      "buffer": 0,
      "byteOffset": 24192,
      "byteLength": 290304,
      "byteStride": 12,
      "name": "bufferViewFloatVec3"
    },
    {
      "buffer": 0,
      "byteOffset": 314496,
      "byteLength": 96768,
      "byteStride": 8,
      "name": "bufferViewFloatVec2"
    }
  ],
  "buffers": [
    {
      "uri": "cahu.bin",
      "byteLength": 411264
    }
  ],
  "materials": [
    {
      "pbrMetallicRoughness": {
        "baseColorFactor": [
          0.5,
          0.5,
          0.5,
          1.0
        ],
        "metallicFactor": 0.0,
        "roughnessFactor": 0.450053632
      },
      "emissiveFactor": [
        0.0,
        0.0,
        0.0
      ],
      "alphaMode": "BLEND",
      "name": "Material #25"
    }
  ],
  "samplers": [
    {
      "magFilter": 9729,
      "minFilter": 9987,
      "wrapS": 10497,
      "wrapT": 10497
    }
  ]
}