{
  "asset": {
    "generator": "COLLADA2GLTF",
    "version": "2.0"
  },
  "scenes": [
    {
      "nodes": [0]
    }
  ],
  "scene": 0,
  "nodes": [
    {
      "children": [1],
      "name": "Y_UP"
    },
    {
      "mesh": 0,
      "name": "baidu"
    }
  ],
  "meshes": [
    {
      "primitives": [
        {
          "attributes": {
            "NORMAL": 1,
            "POSITION": 2,
            "TEXCOORD_0": 3
          },
          "indices": 0,
          "mode": 4,
          "material": 0
        }
      ],
      "name": "ID8"
    }
  ],
  "accessors": [
    {
      "bufferView": 0,
      "byteOffset": 0,
      "componentType": 5125,
      "count": 428976,
      "max": [84499],
      "min": [0],
      "type": "SCALAR"
    },
    {
      "bufferView": 1,
      "byteOffset": 0,
      "componentType": 5126,
      "count": 84500,
      "max": [1, 1, 1],
      "min": [-1, -1, -1],
      "type": "VEC3"
    },
    {
      "bufferView": 1,
      "byteOffset": 1014000,
      "componentType": 5126,
      "count": 84500,
      "max": [1.2244999408721924, 0.4356829822063446, 0.962788999080658],
      "min": [-1.2244999408721924, 0, -0.962788999080658],
      "type": "VEC3"
    },
    {
      "bufferView": 2,
      "byteOffset": 0,
      "componentType": 5126,
      "count": 84500,
      "max": [0.9938480257987976, 0.9938559532165528],
      "min": [0.006151529960334301, 0.00614398717880249],
      "type": "VEC2"
    }
  ],
  "materials": [
    {
      "pbrMetallicRoughness": {
        "baseColorTexture": {
          "index": 0,
          "texCoord": 0
        },
        "metallicFactor": 0.1,
        "roughnessFactor": 1,
        "baseColorFactor": [1, 1, 1, 0.7]
      },
      "emissiveFactor": [0.02890625, 0.013984375, 0.028828125],
      "name": "ID2",

      "alphaMode": "BLEND",
      "doubleSided": false
    }
  ],
  "textures": [
    {
      "sampler": 0,
      "source": 0
    }
  ],
  "images": [
    {
      "uri": "baidu-o0.png"
    }
  ],
  "samplers": [
    {
      "magFilter": 9729,
      "minFilter": 9986,
      "wrapS": 10497,
      "wrapT": 10497
    }
  ],
  "bufferViews": [
    {
      "buffer": 0,
      "byteOffset": 0,
      "byteLength": 1715904,
      "target": 34963
    },
    {
      "buffer": 0,
      "byteOffset": 1715904,
      "byteLength": 2028000,
      "byteStride": 12,
      "target": 34962
    },
    {
      "buffer": 0,
      "byteOffset": 3743904,
      "byteLength": 676000,
      "byteStride": 8,
      "target": 34962
    }
  ],
  "buffers": [
    {
      "name": "baidu-o",
      "byteLength": 4419904,
      "uri": "baidu-o.bin"
    }
  ]
}
