{
  "asset": {
    "generator": "COLLADA2GLTF",
    "version": "2.0"
  },
  "scenes": [
    {
      "nodes": [0]
    }
  ],
  "scene": 0,
  "nodes": [
    {
      "children": [1],
      "name": "Y_UP"
    },
    {
      "mesh": 0,
      "name": "d道路"
    }
  ],
  "meshes": [
    {
      "primitives": [
        {
          "attributes": {
            "NORMAL": 1,
            "POSITION": 2
          },
          "indices": 0,
          "mode": 4,
          "material": 0
        }
      ],
      "name": "ID7"
    }
  ],
  "accessors": [
    {
      "bufferView": 0,
      "byteOffset": 0,
      "componentType": 5123,
      "count": 13656,
      "max": [4631],
      "min": [0],
      "type": "SCALAR"
    },
    {
      "bufferView": 1,
      "byteOffset": 0,
      "componentType": 5126,
      "count": 4632,
      "max": [1.0, 1.0, 1.0],
      "min": [-1.0, -1.0, -1.0],
      "type": "VEC3"
    },
    {
      "bufferView": 1,
      "byteOffset": 55584,
      "componentType": 5126,
      "count": 4632,
      "max": [9.238590240478516, 0.009999999776482582, 5.263180255889893],
      "min": [-6.9710001945495609, 0.0, -4.539360046386719],
      "type": "VEC3"
    }
  ],
  "materials": [
    {
      "pbrMetallicRoughness": {
        "baseColorFactor": [0.01555959998965263368, 0.02129999935626985, 0.06999998688697817, 1],
        "metallicFactor": 1.0
      },
      "name": "ID2"
    }
  ],
  "bufferViews": [
    {
      "buffer": 0,
      "byteOffset": 111168,
      "byteLength": 27312,
      "target": 34963
    },
    {
      "buffer": 0,
      "byteOffset": 0,
      "byteLength": 111168,
      "byteStride": 12,
      "target": 34962
    }
  ],
  "buffers": [
    {
      "byteLength": 138480,
      "uri": "data:application/octet-stream;base64,"
    }
  ]
}
