<?xml version="1.0" standalone="no"?>
<!DOCTYPE svg PUBLIC "-//W3C//DTD SVG 1.1//EN" "http://www.w3.org/Graphics/SVG/1.1/DTD/svg11.dtd"><svg t="1607674517540"
  class="icon" viewBox="0 0 1024 1024" version="1.1" xmlns="http://www.w3.org/2000/svg" p-id="13915"
  xmlns:xlink="http://www.w3.org/1999/xlink" width="200" height="200">
  <defs>
    <style type="text/css"></style>
  </defs>
  <path
    d="M860.2 810.2v1.8c0 1.3-0.1 2.6-0.2 3.8 0 0.3 0 0.5-0.1 0.7-0.1 1.6-0.3 3.1-0.5 4.7-0.3 2-0.7 3.9-1.2 5.8-7.2 28.4-32.9 49.2-63.5 49.2H674c-21 0-39.7-9.9-51.7-25.2-0.9-1.1-1.7-2.3-2.5-3.5-0.2-0.2-0.3-0.5-0.5-0.7-1-1.6-2-3.1-2.9-4.8-0.1-0.1-0.1-0.2-0.2-0.4-0.7-1.3-1.3-2.5-1.9-3.8-0.1-0.3-0.3-0.6-0.4-0.9-0.8-1.8-1.5-3.7-2.2-5.7-2-6-3.1-12.3-3.2-19v-1.7c-0.1-30.3 10.6-58.3 28.5-80.1 0.9-1.2 1.9-2.3 2.9-3.4 0.3-0.3 0.6-0.6 0.9-1 1.3-1.5 2.7-2.9 4.1-4.4 9.8-9.9 21.3-18.3 33.9-24.5 1.4-0.7 2.7-1.3 4.1-1.9 0.4-0.2 0.7-0.3 1.1-0.5 1.8-0.8 3.7-1.6 5.5-2.3 13.9-5.3 28.9-8.2 44.6-8.3h1.7c11.6 0.1 22.9 1.8 33.6 4.9 2.1 0.6 4.1 1.3 6.2 2 0.7 0.3 1.5 0.5 2.2 0.8 1.5 0.5 2.9 1.1 4.3 1.7 5.7 2.3 11.2 5.1 16.5 8.2 2.3 1.4 4.6 2.8 6.8 4.3 1 0.7 2 1.4 3 2.2 1.4 1 2.7 2 4 3 10.5 8.3 19.6 18.2 27 29.4 1.3 2 2.6 4.1 3.8 6.2v0.1c0.9 1.5 1.7 3 2.6 4.6 0.1 0.3 0.3 0.5 0.4 0.8 0.6 1.2 1.3 2.5 1.9 3.7 0.4 0.7 0.7 1.5 1 2.2 0.5 1.1 1 2.3 1.5 3.4 6.2 14.8 9.6 31 9.7 48-0.1 0.3-0.1 0.4-0.1 0.6z"
    fill="#90EB7A" p-id="13916"></path>
  <path d="M681.4 702.9c-0.4-8 7.2-18.6 7.2-18.6l1.9 18.6h-9.1z" fill="#90EB7A" p-id="13917"></path>
  <path d="M680.7 707.4c-3.6-7.1-1.1-20-1.1-20l9.4 16.2-8.3 3.8zM641.6 734.5c-3.6-7.1-0.9-20-0.9-20l9.2 16.3-8.3 3.7z"
    fill="#90EB7A" p-id="13918"></path>
  <path
    d="M642.8 738.9c-6.2-5.1-9-17.8-9-17.8l15.1 11-6.1 6.8zM780.7 697.5l-6.8 2.4-1.8 0.6-2.7-11.3-1.6-7s4.4 3.1 8.1 7.3c0.7 0.7 1.3 1.6 1.9 2.4 1.3 1.9 2.3 3.7 2.9 5.6z"
    fill="#90EB7A" p-id="13919"></path>
  <path
    d="M782.8 701.5l-9.1-0.8 0.1-0.8 1.7-8.7 0.3-1.6 1.5-7.4s3.2 5.4 4.8 11.4c0.7 2.7 1.1 5.4 0.7 7.9zM810.4 712.7l-6.8 2.4-1.8 0.6-3.3-13.8-1.1-4.5s4.4 3.1 8.1 7.3c1 1.1 1.9 2.4 2.8 3.6 0.9 1.5 1.7 2.9 2.1 4.4z"
    fill="#90EB7A" p-id="13920"></path>
  <path
    d="M812.5 716.6l-9.1-0.8 0.2-0.8 1.7-8.8 0.3-1.5 1.4-7.4s4.2 7.1 5.4 14c0.2 1.9 0.3 3.7 0.1 5.3zM868.1 808s-3.2 4.3-7.4 8c-0.2 0.2-0.5 0.4-0.7 0.6-1.6 1.4-3.5 2.6-5.3 3.4-0.6 0.3-1.3 0.5-1.9 0.7l-0.4-1-1.9-5.8-0.6-1.8 10.4-2.3 7.8-1.8z"
    fill="#90EB7A" p-id="13921"></path>
  <path
    d="M868 817.5s-3.8 2.2-8.6 3.8h-0.1c-3.3 1.1-7.1 1.9-10.3 1.6h-0.3l0.2-1.5 0.2-1.6 0.6-6 0.8 0.2 9.6 2 0.6 0.1 7.3 1.4z"
    fill="#90EB7A" p-id="13922"></path>
  <path
    d="M868 825l-9.8 2-8.5 1.7-0.6-6-0.2-1.6-0.2-1.5h0.3c1.1-0.1 2.2-0.1 3.3 0 0.7 0.1 1.5 0.2 2.3 0.3 1.6 0.3 3.2 0.7 4.7 1.3h0.1c4.8 1.7 8.6 3.8 8.6 3.8zM842.9 752.9c-0.2 1.1-0.5 2.2-0.9 3.2 0 0.1 0 0.1-0.1 0.2l-0.5-0.2-1.2-0.5-5.1-1.9-1.8-0.7 6-12.3 2.2-4.6s1.4 5.1 1.6 10.7v0.1c0.2 2.1 0.1 4.1-0.2 6z"
    fill="#90EB7A" p-id="13923"></path>
  <path
    d="M849 742.3s-0.7 4.3-2.4 9c-0.1 0.4-0.3 0.7-0.4 1.1-0.5 1.3-1.1 2.5-1.7 3.7s-1.4 2.3-2.2 3.2c-0.4 0.5-0.8 0.9-1.2 1.3l-1.1-1-5.5-5.3 0.6-0.5 8-6.7 5.9-4.8z"
    fill="#90EB7A" p-id="13924"></path>
  <path
    d="M856.7 746.9s-2.3 4.8-5.8 9.3c-0.6 0.7-1.2 1.5-1.9 2.2-1.6 1.6-3.2 3.1-5 4l-1.7-3-1.8-3.3-0.3-0.4-0.7-1.3 3.3-1.5 2.9-1.3 0.8-0.4 10.2-4.3z"
    fill="#90EB7A" p-id="13925"></path>
  <path
    d="M858.4 756.2s-3.5 3-7.9 5.5c-3.1 1.7-6.7 3.3-10 3.4l-0.5-5.5-0.3-3.6H851l7.4 0.2zM622.1 839.5c-8 0.3-18.6-7.3-18.6-7.3l18.6-1.8v9.1z"
    fill="#90EB7A" p-id="13926"></path>
  <path d="M626.5 840.3c-7.1 3.6-20 0.9-20 0.9l16.2-9.3 3.8 8.4z" fill="#90EB7A" p-id="13927"></path>
  <path d="M627.1 843.6c-5.9 5.4-18.9 6.5-18.9 6.5l13.1-13.4 5.8 6.9z" fill="#90EB7A" p-id="13928"></path>
  <path d="M630.9 841.3c-3.1 7.4-14.6 13.7-14.6 13.7l6.4-17.6 8.2 3.9z" fill="#90EB7A" p-id="13929"></path>
  <path
    d="M868 817.5s-3.8 2.2-8.6 3.8c4.7 1.6 8.6 3.8 8.6 3.8l-9.8 2c-7.2 28.4-32.9 49.2-63.5 49.2h-58.9v-192c11.6 0.1 22.9 1.8 33.6 4.9l-1.6-7s4.4 3.1 8.1 7.3l1.4-7.4s3.2 5.4 4.8 11.4c5.7 2.3 11.2 5.1 16.5 8.2l-1.1-4.5s4.4 3.1 8.1 7.3l1.4-7.4s4.2 7.1 5.4 14c10.5 8.3 19.6 18.2 27 29.4l2.2-4.6s1.4 5.1 1.6 10.7v0.1l5.7-4.8s-0.7 4.3-2.4 9l10.1-4.4s-2.3 4.8-5.8 9.3l7.5 0.1s-3.5 3-7.9 5.5c6.2 14.8 9.6 31 9.7 48l7.9-1.8s-3.2 4.3-7.4 8l7.4 1.9z"
    fill="#00D16C" p-id="13930"></path>
  <path d="M780.4 758.8m-4.6 0a4.6 4.6 0 1 0 9.2 0 4.6 4.6 0 1 0-9.2 0Z" fill="#B20606" p-id="13931"></path>
  <path d="M774.5 755.1m-4.6 0a4.6 4.6 0 1 0 9.2 0 4.6 4.6 0 1 0-9.2 0Z" fill="#EA1515" p-id="13932"></path>
  <path d="M774.9 761.9m-4.6 0a4.6 4.6 0 1 0 9.2 0 4.6 4.6 0 1 0-9.2 0Z" fill="#B20606" p-id="13933"></path>
  <path d="M847.2 764.1m-4.6 0a4.6 4.6 0 1 0 9.2 0 4.6 4.6 0 1 0-9.2 0Z" fill="#B20606" p-id="13934"></path>
  <path d="M845.3 757.4m-4.6 0a4.6 4.6 0 1 0 9.2 0 4.6 4.6 0 1 0-9.2 0Z" fill="#EA1515" p-id="13935"></path>
  <path d="M841.1 762.7m-4.6 0a4.6 4.6 0 1 0 9.2 0 4.6 4.6 0 1 0-9.2 0Z" fill="#B20606" p-id="13936"></path>
  <path d="M752 810.7m-4.6 0a4.6 4.6 0 1 0 9.2 0 4.6 4.6 0 1 0-9.2 0Z" fill="#B20606" p-id="13937"></path>
  <path d="M746.1 807m-4.6 0a4.6 4.6 0 1 0 9.2 0 4.6 4.6 0 1 0-9.2 0Z" fill="#EA1515" p-id="13938"></path>
  <path d="M746.6 813.7m-4.6 0a4.6 4.6 0 1 0 9.2 0 4.6 4.6 0 1 0-9.2 0Z" fill="#B20606" p-id="13939"></path>
  <path d="M755.7 818.9m-4.6 0a4.6 4.6 0 1 0 9.2 0 4.6 4.6 0 1 0-9.2 0Z" fill="#B20606" p-id="13940"></path>
  <path d="M756.7 812m-4.6 0a4.6 4.6 0 1 0 9.2 0 4.6 4.6 0 1 0-9.2 0Z" fill="#EA1515" p-id="13941"></path>
  <path d="M750.7 815.2m-4.6 0a4.6 4.6 0 1 0 9.2 0 4.6 4.6 0 1 0-9.2 0Z" fill="#B20606" p-id="13942"></path>
  <path d="M819.8 840.6m-4.6 0a4.6 4.6 0 1 0 9.2 0 4.6 4.6 0 1 0-9.2 0Z" fill="#B20606" p-id="13943"></path>
  <path d="M820.8 833.6m-4.6 0a4.6 4.6 0 1 0 9.2 0 4.6 4.6 0 1 0-9.2 0Z" fill="#EA1515" p-id="13944"></path>
  <path d="M814.8 836.8m-4.6 0a4.6 4.6 0 1 0 9.2 0 4.6 4.6 0 1 0-9.2 0Z" fill="#B20606" p-id="13945"></path>
  <path d="M695.2 720.3m-4.6 0a4.6 4.6 0 1 0 9.2 0 4.6 4.6 0 1 0-9.2 0Z" fill="#EA1515" p-id="13946"></path>
  <path d="M701.1 723.9m-4.6 0a4.6 4.6 0 1 0 9.2 0 4.6 4.6 0 1 0-9.2 0Z" fill="#F47373" p-id="13947"></path>
  <path d="M695.6 727m-4.6 0a4.6 4.6 0 1 0 9.2 0 4.6 4.6 0 1 0-9.2 0Z" fill="#EA1515" p-id="13948"></path>
  <path d="M721.4 749m-4.6 0a4.6 4.6 0 1 0 9.2 0 4.6 4.6 0 1 0-9.2 0Z" fill="#EA1515" p-id="13949"></path>
  <path d="M727.4 752.7m-4.6 0a4.6 4.6 0 1 0 9.2 0 4.6 4.6 0 1 0-9.2 0Z" fill="#F47373" p-id="13950"></path>
  <path d="M721.9 755.7m-4.6 0a4.6 4.6 0 1 0 9.2 0 4.6 4.6 0 1 0-9.2 0Z" fill="#EA1515" p-id="13951"></path>
  <path d="M683 782.2m-4.6 0a4.6 4.6 0 1 0 9.2 0 4.6 4.6 0 1 0-9.2 0Z" fill="#EA1515" p-id="13952"></path>
  <path d="M689 785.9m-4.6 0a4.6 4.6 0 1 0 9.2 0 4.6 4.6 0 1 0-9.2 0Z" fill="#F47373" p-id="13953"></path>
  <path d="M683.4 788.9m-4.6 0a4.6 4.6 0 1 0 9.2 0 4.6 4.6 0 1 0-9.2 0Z" fill="#EA1515" p-id="13954"></path>
  <path d="M684.4 729.6m-4.6 0a4.6 4.6 0 1 0 9.2 0 4.6 4.6 0 1 0-9.2 0Z" fill="#EA1515" p-id="13955"></path>
  <path d="M690 725.3m-4.6 0a4.6 4.6 0 1 0 9.2 0 4.6 4.6 0 1 0-9.2 0Z" fill="#F47373" p-id="13956"></path>
  <path d="M690.8 731.6m-4.6 0a4.6 4.6 0 1 0 9.2 0 4.6 4.6 0 1 0-9.2 0Z" fill="#EA1515" p-id="13957"></path>
  <path d="M683.4 778.9m-4.6 0a4.6 4.6 0 1 0 9.2 0 4.6 4.6 0 1 0-9.2 0Z" fill="#EA1515" p-id="13958"></path>
  <path d="M689 774.7m-4.6 0a4.6 4.6 0 1 0 9.2 0 4.6 4.6 0 1 0-9.2 0Z" fill="#F47373" p-id="13959"></path>
  <path d="M689.8 780.9m-4.6 0a4.6 4.6 0 1 0 9.2 0 4.6 4.6 0 1 0-9.2 0Z" fill="#EA1515" p-id="13960"></path>
  <path d="M641 798.1m-4.6 0a4.6 4.6 0 1 0 9.2 0 4.6 4.6 0 1 0-9.2 0Z" fill="#EA1515" p-id="13961"></path>
  <path d="M642.4 791.3m-4.6 0a4.6 4.6 0 1 0 9.2 0 4.6 4.6 0 1 0-9.2 0Z" fill="#F47373" p-id="13962"></path>
  <path d="M647.2 795.4m-4.6 0a4.6 4.6 0 1 0 9.2 0 4.6 4.6 0 1 0-9.2 0Z" fill="#EA1515" p-id="13963"></path>
  <path d="M679.6 834.5m-4.6 0a4.6 4.6 0 1 0 9.2 0 4.6 4.6 0 1 0-9.2 0Z" fill="#EA1515" p-id="13964"></path>
  <path d="M684.2 829.3m-4.6 0a4.6 4.6 0 1 0 9.2 0 4.6 4.6 0 1 0-9.2 0Z" fill="#F47373" p-id="13965"></path>
  <path d="M686.2 835.3m-4.6 0a4.6 4.6 0 1 0 9.2 0 4.6 4.6 0 1 0-9.2 0Z" fill="#EA1515" p-id="13966"></path>
  <path d="M635.1 838.9m-4.6 0a4.6 4.6 0 1 0 9.2 0 4.6 4.6 0 1 0-9.2 0Z" fill="#EA1515" p-id="13967"></path>
  <path d="M639.8 833.6m-4.6 0a4.6 4.6 0 1 0 9.2 0 4.6 4.6 0 1 0-9.2 0Z" fill="#F47373" p-id="13968"></path>
  <path d="M641.8 839.6m-4.6 0a4.6 4.6 0 1 0 9.2 0 4.6 4.6 0 1 0-9.2 0Z" fill="#EA1515" p-id="13969"></path>
  <path d="M770.7 719.6m-4.6 0a4.6 4.6 0 1 0 9.2 0 4.6 4.6 0 1 0-9.2 0Z" fill="#B20606" p-id="13970"></path>
  <path d="M764.7 716m-4.6 0a4.6 4.6 0 1 0 9.2 0 4.6 4.6 0 1 0-9.2 0Z" fill="#EA1515" p-id="13971"></path>
  <path d="M765.2 722.7m-4.6 0a4.6 4.6 0 1 0 9.2 0 4.6 4.6 0 1 0-9.2 0Z" fill="#B20606" p-id="13972"></path>
  <path d="M806.1 796.1m-4.6 0a4.6 4.6 0 1 0 9.2 0 4.6 4.6 0 1 0-9.2 0Z" fill="#B20606" p-id="13973"></path>
  <path d="M808.6 789.5m-4.6 0a4.6 4.6 0 1 0 9.2 0 4.6 4.6 0 1 0-9.2 0Z" fill="#EA1515" p-id="13974"></path>
  <path d="M802.1 791.2m-4.6 0a4.6 4.6 0 1 0 9.2 0 4.6 4.6 0 1 0-9.2 0Z" fill="#B20606" p-id="13975"></path>
  <path d="M758.3 870.4m-4.6 0a4.6 4.6 0 1 0 9.2 0 4.6 4.6 0 1 0-9.2 0Z" fill="#B20606" p-id="13976"></path>
  <path d="M754.9 864.3m-4.6 0a4.6 4.6 0 1 0 9.2 0 4.6 4.6 0 1 0-9.2 0Z" fill="#EA1515" p-id="13977"></path>
  <path d="M752 870.4m-4.6 0a4.6 4.6 0 1 0 9.2 0 4.6 4.6 0 1 0-9.2 0Z" fill="#B20606" p-id="13978"></path>
  <path d="M833 829.6m-4.6 0a4.6 4.6 0 1 0 9.2 0 4.6 4.6 0 1 0-9.2 0Z" fill="#B20606" p-id="13979"></path>
  <path d="M827 825.9m-4.6 0a4.6 4.6 0 1 0 9.2 0 4.6 4.6 0 1 0-9.2 0Z" fill="#EA1515" p-id="13980"></path>
  <path d="M827.5 832.7m-4.6 0a4.6 4.6 0 1 0 9.2 0 4.6 4.6 0 1 0-9.2 0Z" fill="#B20606" p-id="13981"></path>
  <path d="M639.3 802.6m-4.6 0a4.6 4.6 0 1 0 9.2 0 4.6 4.6 0 1 0-9.2 0Z" fill="#EA1515" p-id="13982"></path>
  <path d="M644.9 798.4m-4.6 0a4.6 4.6 0 1 0 9.2 0 4.6 4.6 0 1 0-9.2 0Z" fill="#F47373" p-id="13983"></path>
  <path d="M645.8 804.6m-4.6 0a4.6 4.6 0 1 0 9.2 0 4.6 4.6 0 1 0-9.2 0Z" fill="#EA1515" p-id="13984"></path>
  <path
    d="M250.4 923.2c-8.3 0-15.9-3.4-21.4-8.9s-8.9-13-8.9-21.4V800c0-16.7 13.5-30.2 30.2-30.2 8.3 0 15.9 3.4 21.4 8.9s8.9 13 8.9 21.4V893c0.1 16.6-13.5 30.2-30.2 30.2z"
    fill="#90EB7A" p-id="13985"></path>
  <path
    d="M375.7 923.2c-8.3 0-15.9-3.4-21.4-8.9s-8.9-13-8.9-21.4V850c0-16.7 13.5-30.2 30.2-30.2 8.3 0 15.9 3.4 21.4 8.9s8.9 13 8.9 21.4V893c0.1 16.6-13.5 30.2-30.2 30.2z"
    fill="#00AD95" p-id="13986"></path>
  <path
    d="M546.5 353.6V899c0 6.2-5.1 11.3-11.3 11.3h-46.4c-6.2 0-11.3-5.1-11.3-11.3V353.6c0-6.2 5.1-11.3 11.3-11.3h46.4c6.2-0.1 11.3 5 11.3 11.3z"
    fill="#B05C25" p-id="13987"></path>
  <path d="M546.5 353.6V899c0 6.2-5.1 11.3-11.3 11.3h-24.6v-568h24.6c6.2-0.1 11.3 5 11.3 11.3z" fill="#8E4A1F"
    p-id="13988"></path>
  <path
    d="M961 512c0 59.3-66.2 107.4-147.8 107.4-10.1 0-19.9-0.7-29.4-2.1-25.9 16.3-59.7 26.2-96.7 26.2-30.8 0-59.4-6.9-83-18.5 37.2-189.6-202.8-173.8-201.8-10.3-34.2 18.1-76.2 28.7-121.7 28.7-114.5 0-207.2-67.4-207.2-150.6 0-42.6 24.3-81 63.5-108.4-3.1-10.4-4.8-21.2-4.8-32.3 0-72.8 71.1-133.6 165.7-147.5 42-54 121.3-90.8 212.4-92h4.5c106.3 0 197 48.4 232.7 116.5C856.4 233.4 943 299 943 379.4c0 22.1-6.6 43.2-18.4 62.1C947.3 460.4 961 485 961 512z"
    fill="#90EB7A" p-id="13989"></path>
  <path d="M132.1 352.2a207.2 150.6 0 1 0 414.4 0 207.2 150.6 0 1 0-414.4 0Z" fill="#00D16C" p-id="13990"></path>
  <path d="M539.2 536.1a147.8 107.4 0 1 0 295.6 0 147.8 107.4 0 1 0-295.6 0Z" fill="#008486" p-id="13991"></path>
  <path d="M528.6 379.4a207.2 150.6 0 1 0 414.4 0 207.2 150.6 0 1 0-414.4 0Z" fill="#00AD95" p-id="13992"></path>
  <path d="M672.9 576S554.4 683.4 542.5 793.3l-7.1-62.4-3.2-34.8s39.4-112.9 114.1-154.4 26.6 34.3 26.6 34.3z"
    fill="#8E4A1F" p-id="13993"></path>
  <path d="M334.2 551s129.6 93.8 153.4 201.6l0.2-62.8-0.7-34.9S435.5 547 356.7 514s-22.5 37-22.5 37z" fill="#B05C25"
    p-id="13994"></path>
  <path d="M646.4 509.4a157.3 114.3 0 1 0 314.6 0 157.3 114.3 0 1 0-314.6 0Z" fill="#008486" p-id="13995"></path>
  <path d="M73.4 492.9a207.2 150.6 0 1 0 414.4 0 207.2 150.6 0 1 0-414.4 0Z" fill="#00AD95" p-id="13996"></path>
  <path
    d="M658.4 492.9c0 59.3-66.2 107.4-147.8 107.4h-0.5c-81.4-0.2-147.3-48.2-147.3-107.4s65.9-107.2 147.3-107.4h0.5c81.6 0 147.8 48 147.8 107.4z"
    fill="#90EB7A" p-id="13997"></path>
  <path d="M658.4 492.9c0 59.3-66.2 107.4-147.8 107.4h-0.5V385.5h0.5c81.6 0 147.8 48 147.8 107.4z" fill="#00D16C"
    p-id="13998"></path>
  <path
    d="M932 902.6c0 8.3-3.4 15.9-8.9 21.4s-13 8.9-21.4 8.9H122.2c-16.7 0-30.2-13.5-30.2-30.2 0-8.3 3.4-15.9 8.9-21.4s13-8.9 21.4-8.9h779.5c16.7 0 30.2 13.5 30.2 30.2z"
    fill="#00D16C" p-id="13999"></path>
  <path d="M932 902.6c0 8.3-3.4 15.9-8.9 21.4s-13 8.9-21.4 8.9H510.6v-60.5h391.2c16.7 0 30.2 13.5 30.2 30.2z"
    fill="#00AD95" p-id="14000"></path>
  <path
    d="M971 510.6v-1.2c0-14.7-3.4-29.1-10.1-42.8-5.3-10.9-12.6-21-21.8-30.4 2.2-4.4 4.2-8.8 5.9-13.3 0.5-1.3 1-2.7 1.5-4v-0.3c0.4-1.3 0.9-2.6 1.3-3.9l0.1-0.3c0.4-1.2 0.7-2.5 1.1-3.8v-0.1l0.1-0.5c0.3-1.2 0.6-2.4 0.9-3.7v-0.2l0.1-0.5c0.2-1.1 0.5-2.3 0.7-3.5v-0.2c0-0.2 0.1-0.4 0.1-0.6 0.2-1.1 0.4-2.2 0.6-3.4v-0.3c0-0.2 0.1-0.5 0.1-0.7 0.1-1 0.3-2 0.4-3.3v-0.3c0-0.3 0.1-0.5 0.1-0.8 0.1-1.1 0.2-2.3 0.3-3.2v-0.3c0-0.3 0-0.6 0.1-0.8 0.1-1.1 0.1-2.2 0.2-3.3v-1.1c0-1.5 0.1-3 0.1-4.4 0-1.4 0-2.8-0.1-4.2v-1.5c0-0.9-0.1-1.8-0.1-2.7 0-0.4-0.1-0.7-0.1-1.1v-0.8c-0.1-0.8-0.1-1.5-0.2-2.3 0-0.4-0.1-0.7-0.1-1.1v-0.8c-0.1-0.8-0.2-1.5-0.3-2.3 0-0.4-0.1-0.7-0.2-1.1l-0.1-0.5v-0.2c-0.1-0.8-0.2-1.6-0.4-2.3-0.1-0.4-0.1-0.7-0.2-1.1l-0.1-0.4c-0.2-0.9-0.3-1.7-0.5-2.5-0.1-0.4-0.2-0.7-0.2-1.1l-0.1-0.4c-0.2-0.8-0.4-1.7-0.6-2.5-0.1-0.3-0.2-0.7-0.3-1.1l-0.1-0.4c-0.2-0.8-0.4-1.7-0.7-2.5-0.1-0.3-0.2-0.7-0.3-1l-0.1-0.4c-0.2-0.9-0.5-1.7-0.8-2.6-0.1-0.3-0.2-0.7-0.3-1l-0.1-0.3c-0.3-0.9-0.6-1.7-0.9-2.6-0.1-0.3-0.2-0.7-0.4-1l-0.1-0.2c-0.3-0.9-0.6-1.8-1-2.6-0.1-0.3-0.3-0.7-0.4-1l-0.1-0.2c-0.3-0.9-0.7-1.8-1.1-2.7-0.1-0.3-0.3-0.7-0.4-1v-0.1l-1.2-2.7c-0.2-0.3-0.3-0.7-0.5-1-0.4-0.9-0.9-1.8-1.3-2.7-0.2-0.3-0.3-0.7-0.5-1-0.5-0.9-0.9-1.8-1.4-2.7-0.2-0.3-0.3-0.6-0.5-0.9-0.5-0.9-1-1.8-1.6-2.8v-0.1c-0.1-0.2-0.3-0.5-0.4-0.8-0.5-0.9-1.1-1.8-1.7-2.8l-0.1-0.2-0.4-0.6c-0.6-0.9-1.2-1.8-1.8-2.8l-0.1-0.2-0.3-0.4c-0.6-0.9-1.3-1.9-2-2.9l-0.1-0.2-0.3-0.4c-0.7-1-1.4-1.9-2.1-2.9l-0.1-0.2-0.2-0.3c-0.7-1-1.5-2-2.3-3l-0.1-0.1-0.2-0.3c-0.8-1-1.6-2-2.5-3l-0.2-0.2c-0.9-1.1-1.8-2.1-2.7-3.2l-0.1-0.1c-7.6-8.6-16.3-16.7-26-24-0.1-0.1-0.2-0.2-0.3-0.2l-0.1-0.1c-1.1-0.9-2.2-1.6-3.1-2.4-0.2-0.2-0.5-0.3-0.7-0.5l-0.4-0.3c-0.8-0.6-1.7-1.2-2.5-1.8-0.4-0.3-0.8-0.5-1.1-0.8l-0.5-0.3-0.4-0.2c-0.6-0.4-1.2-0.8-1.7-1.2s-1-0.7-1.6-1l-0.4-0.3-0.4-0.3c-0.4-0.3-0.9-0.6-1.4-0.9-0.7-0.5-1.4-0.9-2.1-1.3l-0.2-0.1-0.4-0.3c-0.4-0.2-0.7-0.5-1.1-0.7-0.9-0.5-1.8-1-2.6-1.6l-0.4-0.2c-0.3-0.2-0.6-0.3-0.9-0.5-1-0.6-2-1.1-2.9-1.7l-0.3-0.2c-0.2-0.1-0.5-0.3-0.7-0.4-1.1-0.6-2.2-1.2-3.2-1.8l-0.2-0.1-0.5-0.3c-1.1-0.6-2.3-1.2-3.6-1.8l-0.2-0.1-0.3-0.2c-1.2-0.6-2.6-1.3-3.9-1.9l-0.1-0.1c-29.9-14.3-64.4-22.9-100-25-19.1-33.5-50.6-62.1-91.4-83-43.4-22.1-94.3-33.8-147.3-33.8h-4.6c-45.4 0.6-89.8 10-128.5 27.1-36.6 16.1-67.3 38.8-89.1 65.7-21.4 3.5-42 9.3-61.1 17.4-19.9 8.4-37.9 19.1-53.3 31.7-15.7 12.8-28.4 27.3-37.7 43.1-9.8 16.5-15.7 33.9-17.5 51.9v0.3c-0.1 1.3-0.2 2.6-0.3 3.8v0.4c-0.1 1.3-0.2 2.5-0.2 3.8v0.4c0 1.5-0.1 2.8-0.1 4.1v0.1c0 9.5 1.1 18.9 3.3 28.2-0.2 0.1-0.4 0.3-0.6 0.4l-0.1 0.1-0.3 0.2c-39.4 30-61.1 69.7-61.1 111.7v0.1c0 22.1 5.9 43.5 17.6 63.6 11.1 19.1 27 36.3 47.2 50.9 40.8 29.7 94.9 46 152.4 46 43.8 0 85.6-9.4 121.5-27.4 30.4 33 52.3 65.5 65.4 96.6v144.7h-56.6v-17.3c0-9.4-3.7-18.2-10.4-24.9-6.7-6.7-15.5-10.4-24.9-10.4-19.4 0-35.2 15.8-35.2 35.2v17.4h-54.8v-67.3c0-9.4-3.7-18.2-10.4-24.9-6.7-6.7-15.5-10.4-24.9-10.4-19.4 0-35.2 15.8-35.2 35.2v67.4h-92.8c-9.4 0-18.2 3.7-24.9 10.4-6.7 6.7-10.4 15.5-10.4 24.9 0 19.4 15.8 35.2 35.2 35.2h779.5c9.4 0 18.2-3.7 24.9-10.4 6.7-6.7 10.4-15.5 10.4-24.9 0-4.4-0.8-8.7-2.4-12.7-1.5-4-3.8-7.7-6.8-11-0.8-0.8-1.5-1.6-2.4-2.4-2.1-1.9-4.4-3.5-6.9-4.9-2.4-1.3-4.9-2.3-7.5-3-0.8-0.2-1.5-0.4-2.2-0.5-2.3-0.5-4.7-0.7-7.1-0.7h-56.8c9.2-8.3 16.5-19 20.7-31.2l3.9-0.8c4.1-0.8 7.2-4.1 7.9-8.3 0.1-0.4 0.1-0.8 0.1-1.2 0.1-1.5-0.2-2.9-0.7-4.2 0.6-1.6 0.9-3.3 0.6-5.1-0.2-1.2-0.5-2.3-1.1-3.3 0.8-1.4 1.3-3.1 1.3-4.8 0-1-0.2-2-0.4-3-0.3-1-0.7-2-1.3-2.9-1.5-2.4-4-3.9-6.6-4.4-1-11.1-3.3-21.9-6.9-32.3 1.2-0.9 1.9-1.5 2.1-1.7 3.1-2.7 4.3-7 2.9-10.9 0-0.1-0.1-0.2-0.1-0.3-0.3-1-0.8-1.8-1.4-2.6 0.6-1.9 0.6-3.9 0-5.8-0.4-1.6-1.3-3.2-2.5-4.5-1.7-1.8-4.1-2.9-6.5-3-0.9-1.3-2-2.5-3.5-3.3-0.9-0.5-2-0.9-3-1.1-1.4-3.4-4.6-5.8-8.4-6.2h-1.3c-5.9-7.5-12.5-14.3-19.8-20.4-1.9-6.9-5.3-12.7-5.8-13.5-1.8-3.1-5.1-4.9-8.6-4.9-0.6 0-1.2 0-1.7 0.2-1.1 0.2-2.2 0.6-3.1 1.1-1.5-0.8-3.1-1.2-4.7-1.2-1.2 0-2.4 0.2-3.5 0.7-1.3-0.6-2.5-1.2-3.8-1.8-1.8-4.9-4-8.6-4.3-9.1-1.5-3.1-4.8-4.9-8.3-4.9-0.6 0-1.2 0-1.7 0.2-1.1 0.2-2.2 0.6-3.1 1.1-1.5-0.8-3.1-1.2-4.7-1.2-1.9 0-3.9 0.6-5.6 1.7-1 0.7-1.9 1.5-2.6 2.5-7.8-1.5-15.8-2.2-23.8-2.3H734h-0.1c-12.6 0.1-24.9 1.8-36.8 5.2-1.3-2.3-3.5-4-6.1-4.7-0.9-0.2-1.7-0.3-2.6-0.3-2.8 0-5.5 1.2-7.4 3.2-0.5-0.1-1.1-0.1-1.6-0.1-0.6 0-1.1 0-1.7 0.1-4.1 0.7-7.4 3.9-8.2 8-0.1 0.3-0.5 2.4-0.7 5.4-8 4.4-15.5 9.6-22.5 15.5-1.7-1.2-3.7-1.9-5.9-1.9-0.5 0-1 0-1.5 0.1-3.8 0.6-6.8 3.3-8 6.8-1 0.3-2 0.7-2.9 1.3-3.5 2.3-5.2 6.5-4.3 10.5 0.1 0.4 0.6 2.5 1.6 5.5-17.6 23.5-27.2 52.3-27.1 81.8v1.8c0.1 3.6 0.4 7.2 0.9 10.7-2.7 1.2-4.8 3.6-5.6 6.5-1 3.6 0.1 7.4 2.8 9.9-0.2 1.1-0.2 2.2 0 3.3 0.3 1.7 1 3.3 2 4.6-0.7 2.3-0.5 4.8 0.6 7 1.6 3.4 4.9 5.5 8.5 5.7 0.5 0.9 1.3 1.8 2.1 2.5 1.9 1.6 4.2 2.4 6.5 2.4 1.4 0 2.9-0.3 4.2-0.9 1 1 1.9 1.9 2.9 2.8h-66.6v-95.9C568.2 723 599 676.3 624.4 644c17.8 5.7 36.7 8.9 56.2 9.5h0.8c2.1 0.1 3.9 0.1 5.5 0.1h4.1c1.2 0 2.5-0.1 3.8-0.1h0.2c1.3 0 2.5-0.1 3.8-0.2h0.3c1.2-0.1 2.5-0.1 3.7-0.2h0.1c27-2 52.8-9.1 75-20.7 8.5 1 17.2 1.5 25.9 1.5 48.4 0 94.4-15.5 126.1-42.5 26.5-21.6 41.2-49.8 41.2-79.2l-0.1-1.6zM350.4 850c0-13.9 11.3-25.2 25.2-25.2 6.7 0 13.1 2.6 17.9 7.4s7.4 11.1 7.4 17.9v17.3h-50.5V850z m-125.3-50c0-13.9 11.3-25.2 25.2-25.2 6.7 0 13.1 2.6 17.9 7.4s7.4 11.1 7.4 17.9v67.3h-50.5V800z m397.2 51c-3.2 2.4-6 4-6 4l2.6-7.1c-5.4 1.7-10.7 2.2-10.7 2.2l7.8-7.9c-5.1-0.1-9.5-1-9.5-1l6.5-3.7c-5.2-2.2-9.5-5.3-9.5-5.3l8.3-0.8c0-0.1 0-0.1-0.1-0.2-2-6-3.1-12.3-3.2-19v-1.7c-0.1-30.3 10.6-58.3 28.5-80.1-2.2-4.8-3.2-9.3-3.2-9.3l5.9 4.3c-0.1-5.7 1-10.9 1-10.9l4.1 7.2 0.1-0.1c9.8-9.9 21.3-18.3 33.9-24.5 0-5.2 0.8-9.7 0.8-9.7l3.8 6.5c2.1-5.2 5.2-9.6 5.2-9.6l0.8 8.1h0.1c13.9-5.3 28.9-8.2 44.6-8.3h1.7c11.6 0.1 22.9 1.8 33.6 4.9l-1.6-6.8s1.1 0.8 2.6 2.1 3.5 3.1 5.4 5.1l1.2-5.8 0.3-1.5s3.2 5.4 4.8 11.4c2.8 1.2 5.7 2.4 8.4 3.8 2.7 1.3 5.3 2.8 7.9 4.3l-1-4.2s0.1 0 0.2 0.1l-0.1-0.3s4.4 3.1 8.1 7.3l1.4-7.4s4.2 7.1 5.4 14c10.5 8.3 19.6 18.2 27 29.4l2.1-4.4 0.1-0.2s1.4 5.1 1.6 10.7v0.1l5.7-4.8s0 0.2-0.1 0.6l0.2-0.2s-0.7 4-2.2 8.5l9.8-4.3-0.3 0.6 0.4-0.2c-0.1 0.3-2.3 4.6-5.5 8.9l7.1 0.1-0.3 0.3h0.4s-3.3 2.8-7.5 5.2c0.5 0.8 0.9 1.7 0.9 2.7v0.4c5.4 13.9 8.4 29.1 8.5 44.9l7.7-1.8s-0.1 0.2-0.4 0.5l0.5-0.1s-3 4.1-7.1 7.7l7 1.8s-3.7 2.2-8.5 3.8c4.7 1.7 8.5 3.7 8.5 3.7h-0.1c0.1 0 0.1 0.1 0.1 0.1l-9.8 2c-4.3 16.8-15 31-29.4 39.7H640.2c-6.9-4.1-13-9.5-17.9-15.8z m16 26.4h263.5c1.7 0 3.4 0.2 5.1 0.5 0.5 0.1 1 0.2 1.6 0.4 1.9 0.5 3.7 1.2 5.4 2.2 1.8 1 3.4 2.1 4.9 3.5 0.6 0.5 1.2 1.1 1.7 1.7 4.2 4.6 6.5 10.7 6.5 16.9 0 6.7-2.6 13.1-7.4 17.9-4.8 4.8-11.1 7.4-17.9 7.4H122.2c-13.9 0-25.2-11.3-25.2-25.2 0-6.7 2.6-13.1 7.4-17.9 4.8-4.8 11.1-7.4 17.9-7.4h516zM961 512c0 27.5-14.2 52.5-37.6 71.5-28.8 24.6-71.8 40.2-119.7 40.2-9.5 0-18.8-0.6-27.8-1.8-20.9 11.5-46.2 19-73.8 21h-0.1c-1.2 0.1-2.4 0.2-3.6 0.2h-0.2c-1.2 0.1-2.3 0.1-3.5 0.2h-0.2c-1.2 0-2.5 0.1-3.7 0.1H687c-1.8 0-3.5 0-5.2-0.1h-0.8c-21.5-0.6-41.8-4.6-60-11.2-29.2 36.2-62.2 86-74.5 138.1v97.1h-69V720.8c-16.6-40.6-45.6-77.8-73.3-107-34.5 18.7-77.3 29.7-123.6 29.7-114.4 0-207.2-67.4-207.2-150.6v-0.1c0-40.2 21.7-76.7 57.1-103.7 0.1-0.1 0.3-0.2 0.4-0.3 1-0.8 2-1.5 3-2.2 0.3-0.2 0.6-0.4 0.9-0.7 0.7-0.5 1.3-1 2-1.5-3.1-10.4-4.8-21.2-4.8-32.2v-0.1c0-1.2 0-2.5 0.1-3.7v-0.3c0-1.2 0.1-2.3 0.2-3.5v-0.4c0.1-1.2 0.2-2.3 0.3-3.5v-0.2c7.1-67.6 75.6-122.7 165.1-135.9 42-54 121.3-90.8 212.4-92h4.5c106.4 0 197 48.4 232.8 116.4 37.5 1.5 72.3 10.2 101.8 24.3l0.1 0.1c1.3 0.6 2.5 1.2 3.7 1.8 0.1 0.1 0.3 0.2 0.4 0.2 1.1 0.6 2.3 1.2 3.4 1.8 0.2 0.1 0.5 0.2 0.7 0.4 1 0.6 2.1 1.1 3.1 1.7 0.3 0.2 0.6 0.4 1 0.5 0.9 0.5 1.9 1.1 2.8 1.6 0.4 0.2 0.8 0.5 1.2 0.7 0.8 0.5 1.7 1 2.5 1.5 0.5 0.3 1 0.6 1.4 0.9 0.7 0.5 1.5 0.9 2.2 1.4 0.6 0.4 1.1 0.7 1.7 1.1 0.6 0.4 1.3 0.8 1.9 1.2 0.7 0.5 1.3 0.9 2 1.4 0.5 0.3 1 0.7 1.5 1 0.8 0.6 1.6 1.1 2.4 1.7 0.4 0.3 0.7 0.5 1.1 0.8 1 0.7 2 1.5 3 2.2 0.1 0.1 0.3 0.2 0.4 0.3 9.1 7 17.3 14.6 24.5 22.7 0 0 0 0.1 0.1 0.1 0.9 1 1.7 2 2.5 3 0.1 0.1 0.1 0.2 0.2 0.2 0.8 1 1.6 1.9 2.3 2.9l0.3 0.3c0.7 0.9 1.5 1.8 2.2 2.8 0.1 0.2 0.2 0.3 0.3 0.4 0.7 0.9 1.3 1.8 2 2.7 0.1 0.2 0.2 0.4 0.4 0.5l1.8 2.7c0.1 0.2 0.3 0.4 0.4 0.6 0.6 0.9 1.1 1.8 1.7 2.7 0.1 0.2 0.3 0.5 0.4 0.7 0.5 0.9 1 1.7 1.6 2.6 0.1 0.3 0.3 0.5 0.5 0.8 0.5 0.8 1 1.7 1.4 2.6 0.2 0.3 0.3 0.6 0.5 0.8 0.5 0.8 0.9 1.7 1.3 2.5 0.2 0.3 0.3 0.6 0.5 0.9 0.4 0.8 0.8 1.7 1.2 2.5 0.2 0.3 0.3 0.6 0.5 1 0.4 0.8 0.8 1.7 1.1 2.5 0.2 0.3 0.3 0.7 0.4 1 0.4 0.8 0.7 1.6 1 2.4 0.1 0.4 0.3 0.7 0.4 1.1l0.9 2.4c0.1 0.4 0.3 0.8 0.4 1.2 0.3 0.8 0.5 1.6 0.8 2.4 0.1 0.4 0.3 0.8 0.4 1.2 0.2 0.8 0.5 1.6 0.7 2.4 0.1 0.4 0.2 0.8 0.4 1.3l0.6 2.4c0.1 0.4 0.2 0.9 0.3 1.3 0.2 0.8 0.4 1.5 0.5 2.3 0.1 0.5 0.2 0.9 0.3 1.4 0.2 0.8 0.3 1.5 0.5 2.3 0.1 0.5 0.2 0.9 0.3 1.4 0.1 0.8 0.2 1.6 0.4 2.3 0.1 0.5 0.2 1 0.2 1.4 0.1 0.8 0.2 1.6 0.3 2.3 0.1 0.5 0.1 1 0.2 1.4 0.1 0.8 0.1 1.6 0.2 2.4 0 0.5 0.1 0.9 0.1 1.4 0.1 0.9 0.1 1.7 0.1 2.6 0 0.4 0 0.8 0.1 1.2 0 1.3 0.1 2.5 0.1 3.8 0 1.3 0 2.7-0.1 4v1c0 1-0.1 2-0.2 3 0 0.4-0.1 0.7-0.1 1.1-0.1 1-0.2 2-0.3 2.9 0 0.3-0.1 0.7-0.1 1-0.1 1-0.2 2-0.4 3 0 0.3-0.1 0.6-0.1 0.9-0.2 1-0.3 2.1-0.5 3.1 0 0.2-0.1 0.5-0.1 0.8-0.2 1.1-0.4 2.2-0.7 3.2 0 0.2-0.1 0.4-0.1 0.6-0.3 1.1-0.5 2.2-0.8 3.3 0 0.2-0.1 0.3-0.1 0.5-0.3 1.2-0.6 2.3-1 3.5 0 0.1-0.1 0.2-0.1 0.4-0.4 1.2-0.8 2.4-1.1 3.6 0 0.1 0 0.1-0.1 0.2-0.4 1.3-0.9 2.5-1.4 3.8-2.4 6.4-5.4 12.7-9 18.8 21.5 19.5 34.3 44.3 34.3 71.3v2.6z"
    fill="#005E5E" p-id="14001"></path>
  <path
    d="M477.5 637v-39.4c-11-1.8-21.6-4.6-31.5-8.1 13.8 18 24.5 35.2 31.5 47.5zM562.1 593.6c-5.1 1.4-10.3 2.5-15.6 3.5v65.4c7.5-15.6 17.9-35 31.2-54.2-5.8-4.5-11-9.5-15.6-14.7z m-5.6 29.2v-17.5c0.8-0.2 1.5-0.4 2.3-0.5 1.8 1.9 3.7 3.7 5.6 5.4-2.7 4.1-5.3 8.3-7.9 12.6z"
    fill="#005E5E" p-id="14002"></path>
</svg>